<?xml version="1.0" encoding="UTF-8"?>
<svg xmlns="http://www.w3.org/2000/svg" id="Layer_1" data-name="Layer 1" viewBox="0 0 24 24">
  <path d="m2,2.5c0-1.381,1.119-2.5,2.5-2.5s2.5,1.119,2.5,2.5-1.119,2.5-2.5,2.5-2.5-1.119-2.5-2.5Zm13,4.5c0,.552-.447,1-1,1h-6v15c0,.553-.447,1-1,1s-1-.447-1-1v-6h-2v6c0,.553-.447,1-1,1s-1-.447-1-1v-6.556c-1.19-.694-2-1.97-2-3.444v-3c0-2.206,1.794-4,4-4h10c.553,0,1,.448,1,1ZM20.5,0h-12.26c.479.715.76,1.575.76,2.5,0,.529-.108,1.029-.276,1.5h5.157c1.451,0,2.784.978,3.06,2.402.372,1.915-1.092,3.598-2.942,3.598h-4v5h6v-1c0-.552.448-1,1-1h2c.552,0,1,.448,1,1v1h.5c1.933,0,3.5-1.567,3.5-3.5V3.5c0-1.933-1.567-3.5-3.5-3.5Z" fill="#fff"/>
</svg>
