<?xml version="1.0" encoding="UTF-8"?>
<svg xmlns="http://www.w3.org/2000/svg" id="Layer_1" data-name="Layer 1" viewBox="0 0 24 24">
  <path d="m9.5,13.5c0-1.381,1.119-2.5,2.5-2.5s2.5,1.119,2.5,2.5-1.119,2.5-2.5,2.5-2.5-1.119-2.5-2.5Zm12.679-.765l-5.638,5.205c-.169.155-.352.29-.541.412v4.648c0,.552-.447,1-1,1h-6c-.553,0-1-.448-1-1v-4.648c-.189-.123-.372-.257-.54-.412L1.821,12.735c-.405-.375-.431-1.007-.056-1.413.374-.405,1.008-.431,1.413-.057l5.638,5.205c.37.342.853.53,1.356.53h3.654c.504,0,.986-.188,1.357-.531l5.637-5.204c.406-.374,1.04-.349,1.413.057.375.406.35,1.039-.056,1.413ZM14.5,0c-1.381,0-2.5,1.119-2.5,2.5,0-1.381-1.119-2.5-2.5-2.5s-2.5,1.119-2.5,2.5c0,2.193,2.826,5.169,4.229,6.24.455.347,1.088.347,1.543,0,1.403-1.07,4.229-4.047,4.229-6.24,0-1.381-1.119-2.5-2.5-2.5Z" fill="#022B3A"/>
</svg>
