<?xml version="1.0" encoding="UTF-8"?>
<svg xmlns="http://www.w3.org/2000/svg" viewBox="0 0 100 100" width="100" height="100">
  <defs>
    <linearGradient id="horseGradient" x1="0%" y1="0%" x2="100%" y2="100%">
      <stop offset="0%" style="stop-color:#8B4513;stop-opacity:1" />
      <stop offset="50%" style="stop-color:#A0522D;stop-opacity:1" />
      <stop offset="100%" style="stop-color:#D2B48C;stop-opacity:1" />
    </linearGradient>
  </defs>
  
  <circle cx="50" cy="50" r="45" fill="url(#horseGradient)" stroke="#654321" stroke-width="3"/>
  
  <!-- Horse head silhouette -->
  <path d="M35 25 C40 20, 50 22, 55 25 C60 28, 62 35, 60 45 C58 50, 55 55, 50 58 C45 55, 42 50, 40 45 C38 35, 35 30, 35 25 Z" 
        fill="#FFFFFF"/>
  
  <!-- Horse mane -->
  <path d="M35 25 C30 23, 28 28, 32 32 C34 30, 36 28, 35 25 Z" fill="#654321"/>
  
  <!-- Eye -->
  <circle cx="45" cy="35" r="2" fill="#000000"/>
  
  <!-- Letters HT -->
  <text x="50" y="75" font-family="serif" font-size="18" font-weight="bold" 
        text-anchor="middle" fill="#FFFFFF">HT</text>
  
  <text x="50" y="88" font-family="sans-serif" font-size="7" font-weight="bold" 
        text-anchor="middle" fill="#FFFFFF">HORSE TRADER</text>
</svg>