<svg id="Layer_1" viewBox="0 0 24 24" xmlns="http://www.w3.org/2000/svg" data-name="Layer 1"><g opacity="1"><path d="m.995 19v4.001h22.01v-4.001h-2.005l-1-.606-1 .606h-3l-1-.606-1 .606h-4l-1-.606-1 .606h-3l-1-.606-1 .606z" fill="#022B3A"/></g><path d="m0 22.001h24v2h-24z" fill="#1F7A8C"/><g opacity="1"><path d="m22.437 5.276-9-4.909c-.9-.49-1.975-.49-2.873 0l-9.001 4.909c-.965.526-1.563 1.535-1.563 2.634v2.091h3l1 .596 1-.596h3l1 .596 1-.596h4l1 .596 1-.596h3l1 .596 1-.596h3v-2.091c0-1.099-.599-2.108-1.563-2.634z" fill="#022B3A"/></g><path d="m8 10.001h2v8.999h-2z" fill="#1F7A8C"/><path d="m14 10.001h2v8.999h-2z" fill="#1F7A8C"/><path d="m3 10.001h2v8.999h-2z" fill="#1F7A8C"/><path d="m19 10.001h2v8.999h-2z" fill="#1F7A8C"/></svg>